<svg id="Capa_1" enable-background="new 0 0 512 512" height="512" viewBox="0 0 512 512" width="512" xmlns="http://www.w3.org/2000/svg"><g><g><path d="m52.5 0h407v512h-407z" fill="#655e67"/><path d="m52.5 414.5h407v60h-407z" fill="#f7f6f7"/><g><path d="m474.5 7-15 75.5v326.667l15 32.567-15 32.766v37.5h38c3.866 0 7-3.134 7-7v-75.5l-15-28.717 15-36.617v-65.333-65.333l-15-23.5 15-41.833v-65.333l-15-30.352 15-34.981-15-30.501c0-3.866-3.134-7-7-7h-1c-3.866 0-7 3.134-7 7z" fill="#ff8086"/><path d="m474.5 7v60.5 437.5c0 3.866-3.134 7-7 7h30c3.866 0 7-3.134 7-7v-75.5l-15-31.623 15-33.71v-65.333l-15-28.834 15-36.5v-65.333l-15-31.167 15-34.167v-65.333l-15-30.5c0-3.866-15-3.866-15 0z" fill="#e5646e"/><g><path d="m497.5 0h-38v82.5l45-45v-30.5c0-3.866-3.134-7-7-7z" fill="#f7f6f7"/><path d="m497.5 0h-30c3.866 0 7 3.134 7 7v60.5l30-30v-30.5c0-3.866-3.134-7-7-7z" fill="#e2dfe3"/><path d="m459.5 147.833 45-45v65.334l-45 45z" fill="#f7f6f7"/><path d="m474.5 198.167 30-30v-65.334l-30 30z" fill="#e2dfe3"/><path d="m459.5 343.833 45-45v-65.333l-45 45z" fill="#f7f6f7"/><path d="m474.5 328.833 30-30v-65.333l-30 30z" fill="#e2dfe3"/><path d="m459.5 474.5 45-45v-65.333l-45 45z" fill="#f7f6f7"/><path d="m474.5 459.5 30-30v-65.333l-30 30z" fill="#e2dfe3"/></g></g><g><path d="m22.5 22-15 60.5v65.333l15 25.667-15 39.667v65.333l15 27.559-15 37.775v65.333l15 23.456-15 41.877v30.5c0 3.866 3.134 7 7 7h38v-490c0-3.866-3.134-7-7-7h-16c-3.866 0-7 3.134-7 7z" fill="#ff8086"/><path d="m45.5 0h-30c3.866 0 7 3.134 7 7v498c0 3.866-3.134 7-7 7h37v-505c0-3.866-3.134-7-7-7z" fill="#e5646e"/><g><path d="m52.5 0h-45v82.5l45-45z" fill="#f7f6f7"/><path d="m15.5 0c3.866 0 7 3.134 7 7v60.5l30-30v-37.5z" fill="#e2dfe3"/><path d="m7.5 147.833 45-45v65.334l-45 45z" fill="#f7f6f7"/><path d="m22.5 198.167 30-30v-65.334l-30 30z" fill="#e2dfe3"/><path d="m7.5 343.833 45-45v-65.333l-45 45z" fill="#f7f6f7"/><path d="m22.5 328.833 30-30v-65.333l-30 30z" fill="#e2dfe3"/><path d="m7.5 474.5 45-45v-65.333l-45 45z" fill="#f7f6f7"/><path d="m22.5 459.5 30-30v-65.333l-30 30z" fill="#e2dfe3"/></g></g></g><path d="m278.5 377c4.142 0 7.5-3.358 7.5-7.5v-22c0-1.378 1.122-2.5 2.5-2.5h116c1.378 0 2.5 1.122 2.5 2.5v22c0 4.142 3.358 7.5 7.5 7.5s7.5-3.358 7.5-7.5v-22c0-9.649-7.851-17.5-17.5-17.5h-116c-9.649 0-17.5 7.851-17.5 17.5v22c0 4.142 3.358 7.5 7.5 7.5zm0-240c4.142 0 7.5-3.358 7.5-7.5v-22c0-1.378 1.122-2.5 2.5-2.5h116c1.378 0 2.5 1.122 2.5 2.5v22c0 4.142 3.358 7.5 7.5 7.5s7.5-3.358 7.5-7.5v-22c0-9.649-7.851-17.5-17.5-17.5h-116c-9.649 0-17.5 7.851-17.5 17.5v22c0 4.142 3.358 7.5 7.5 7.5zm0 120c4.142 0 7.5-3.358 7.5-7.5v-22c0-1.378 1.122-2.5 2.5-2.5h116c1.378 0 2.5 1.122 2.5 2.5v22c0 4.142 3.358 7.5 7.5 7.5s7.5-3.358 7.5-7.5v-22c0-9.649-7.851-17.5-17.5-17.5h-116c-9.649 0-17.5 7.851-17.5 17.5v22c0 4.142 3.358 7.5 7.5 7.5zm-181-180c4.142 0 7.5-3.358 7.5-7.5v-22c0-1.378 1.122-2.5 2.5-2.5h116c1.378 0 2.5 1.122 2.5 2.5v22c0 4.142 3.358 7.5 7.5 7.5s7.5-3.358 7.5-7.5v-22c0-9.649-7.851-17.5-17.5-17.5h-116c-9.649 0-17.5 7.851-17.5 17.5v22c0 4.142 3.358 7.5 7.5 7.5zm407 52.839c4.142 0 7.5-3.358 7.5-7.5v-114.839c0-4.142-3.358-7.5-7.5-7.5s-7.5 3.358-7.5 7.5v26.894l-30 30v-56.894c0-4.142-3.358-7.5-7.5-7.5s-7.5 3.358-7.5 7.5v399.5h-309.847c-4.142 0-7.5 3.358-7.5 7.5s3.358 7.5 7.5 7.5h309.847v45h-392v-45h47.153c4.142 0 7.5-3.358 7.5-7.5s-3.358-7.5-7.5-7.5h-47.153v-399.5c0-4.142-3.358-7.5-7.5-7.5s-7.5 3.358-7.5 7.5v26.894l-30 30v-56.894c0-4.142-3.358-7.5-7.5-7.5s-7.5 3.358-7.5 7.5v497c0 4.142 3.358 7.5 7.5 7.5s7.5-3.358 7.5-7.5v-26.894l30-30v56.894c0 4.142 3.358 7.5 7.5 7.5s7.5-3.358 7.5-7.5v-22.5h392v22.5c0 4.142 3.358 7.5 7.5 7.5s7.5-3.358 7.5-7.5v-26.894l30-30v56.894c0 4.142 3.358 7.5 7.5 7.5s7.5-3.358 7.5-7.5v-347.161c0-4.142-3.358-7.5-7.5-7.5s-7.5 3.358-7.5 7.5v7.721l-30 30v-44.12l30-30c-.254 4.755 2.509 8.899 7.5 8.899zm-459.5 296.555-30 30v-44.121l30-30zm0-65.334-30 30v-44.12l30-30zm0-65.333-30 30v-44.121l30-30zm0-65.333-30 30v-44.121l30-30zm0-65.334-30 30v-44.12l30-30zm0-65.333-30 30v-44.121l30-30zm452 326.667-30 30v-44.121l30-30zm0-65.334-30 30v-44.12l30-30zm0-65.333-30 30v-44.121l30-30zm0-109.454v44.121l-30 30v-44.121zm-30-56.546v-44.121l30-30v44.121zm-369.5 67.273c4.142 0 7.5-3.358 7.5-7.5v-22c0-1.378 1.122-2.5 2.5-2.5h116c1.378 0 2.5 1.122 2.5 2.5v22c0 4.142 3.358 7.5 7.5 7.5s7.5-3.358 7.5-7.5v-22c0-9.649-7.851-17.5-17.5-17.5h-116c-9.649 0-17.5 7.851-17.5 17.5v22c0 4.142 3.358 7.5 7.5 7.5zm0 120c4.142 0 7.5-3.358 7.5-7.5v-22c0-1.378 1.122-2.5 2.5-2.5h116c1.378 0 2.5 1.122 2.5 2.5v22c0 4.142 3.358 7.5 7.5 7.5s7.5-3.358 7.5-7.5v-22c0-9.649-7.851-17.5-17.5-17.5h-116c-9.649 0-17.5 7.851-17.5 17.5v22c0 4.142 3.358 7.5 7.5 7.5z"/></g></svg>