<svg id="Capa_1" enable-background="new 0 0 512 512" height="512" viewBox="0 0 512 512" width="512" xmlns="http://www.w3.org/2000/svg"><g><g><path d="m505 283.277h-159.175v-54.555h159.175c3.866 0 7 3.134 7 7v40.555c0 3.866-3.134 7-7 7z" fill="#655e67"/><path d="m505 228.723h-30c3.866 0 7 3.134 7 7v40.555c0 3.866-3.134 7-7 7h30c3.866 0 7-3.134 7-7v-40.555c0-3.866-3.134-7-7-7z" fill="#544f56"/><g><circle cx="204.771" cy="256" fill="#ffe07d" r="197.271"/><path d="m204.771 58.729c-5.046 0-10.048.192-15 .566 101.794 7.69 182.27 92.976 182.27 196.705s-80.476 189.015-182.271 196.704c4.952.374 9.954.566 15 .566 108.775 0 197.271-88.495 197.271-197.271s-88.495-197.27-197.27-197.27z" fill="#ffd064"/><circle cx="204.771" cy="256" fill="#ff8086" r="167.27"/></g></g><path d="m165.939 169.1h-18.266c-3.735-.023-7.496 3.243-7.5 7.5v65.599c0 4.142 3.358 7.5 7.5 7.5s7.5-3.358 7.5-7.5v-21.035c3.851-.02 8.275-.04 10.766-.04 14.543 0 26.375-11.669 26.375-26.012s-11.832-26.012-26.375-26.012zm0 37.025c-2.473 0-6.844.02-10.68.039-.02-3.959-.04-8.513-.04-11.051 0-2.146-.012-6.871-.023-11.012h10.743c6.166 0 11.375 5.043 11.375 11.012s-5.21 11.012-11.375 11.012zm195.633 108.733c-3.808-1.627-8.216.137-9.846 3.944-25.208 58.906-82.892 96.968-146.956 96.968-88.097.001-159.77-71.672-159.77-159.77 0-32.675 9.794-64.09 28.324-90.847 2.358-3.405 1.509-8.078-1.896-10.436-3.406-2.358-8.078-1.509-10.436 1.896-20.275 29.278-30.992 63.645-30.992 99.387 0 96.369 78.402 174.771 174.771 174.771 70.076 0 133.173-41.634 160.746-106.065 1.629-3.81-.137-8.218-3.945-9.848zm-251.894 28.042c13.485 0 24.805-8.579 26.915-20.399 1.583-8.867-2.478-20.465-18.623-26.42-8.174-3.016-15.776-6.302-17.984-7.27-2.141-1.657-2.073-4.003-1.934-4.973.185-1.29 1.112-4.441 5.709-5.826 9.606-2.897 18.439 4.095 18.696 4.301 3.17 2.635 7.877 2.216 10.533-.943 2.665-3.171 2.255-7.902-.916-10.567-.607-.51-15.078-12.443-32.641-7.153-8.792 2.649-15.011 9.568-16.229 18.059-1.141 7.948 2.304 15.595 8.99 19.954.332.216.68.405 1.041.566.378.169 9.392 4.18 19.543 7.925 3.042 1.122 10.012 4.314 9.048 9.711-.705 3.95-5.442 8.036-12.148 8.036-6.714 0-13.182-2.715-17.302-7.261-2.781-3.069-7.524-3.303-10.594-.521-3.069 2.782-3.302 7.524-.521 10.594 6.916 7.631 17.539 12.187 28.417 12.187zm61.099 0c4.142 0 7.5-3.357 7.5-7.5v-58.1h10.687c4.142 0 7.5-3.357 7.5-7.5s-3.358-7.5-7.5-7.5h-36.228c-4.142 0-7.5 3.357-7.5 7.5s3.358 7.5 7.5 7.5h10.541v58.1c0 4.143 3.358 7.5 7.5 7.5zm48.762-100.701v-65.599c0-4.142-3.358-7.5-7.5-7.5s-7.5 3.358-7.5 7.5v65.599c0 4.142 3.358 7.5 7.5 7.5s7.5-3.358 7.5-7.5zm-14.768-160.97c-44.713 0-87.257 16.875-119.794 47.515-3.016 2.839-3.158 7.586-.318 10.602 2.839 3.016 7.587 3.159 10.602.318 29.744-28.009 68.635-43.435 109.511-43.435 88.098 0 159.771 71.673 159.771 159.771 0 10.4-1.005 20.8-2.987 30.912-.797 4.064 1.853 8.006 5.917 8.803 3.967.778 7.998-1.815 8.802-5.918 2.168-11.06 3.267-22.431 3.267-33.797-.001-96.369-78.403-174.771-174.771-174.771zm299.729 194.551h-95.918c.627-6.511.959-13.107.959-19.78s-.332-13.269-.959-19.78h95.918c4.142 0 7.5-3.358 7.5-7.5s-3.358-7.5-7.5-7.5h-97.927c-16.564-96.402-100.746-169.991-201.802-169.991-112.911 0-204.771 91.86-204.771 204.771s91.86 204.771 204.771 204.771c101.057 0 185.238-73.588 201.802-169.99h97.927c4.142 0 7.5-3.357 7.5-7.5s-3.358-7.501-7.5-7.501zm-299.729 169.991c-104.64 0-189.771-85.131-189.771-189.771s85.131-189.771 189.771-189.771 189.77 85.131 189.77 189.771-85.131 189.771-189.77 189.771zm33.539-102.871c22.221 0 40.3-18.078 40.3-40.3s-18.079-40.3-40.3-40.3-40.299 18.078-40.299 40.3 18.078 40.3 40.299 40.3zm0-65.599c13.95 0 25.3 11.35 25.3 25.3s-11.35 25.3-25.3 25.3-25.299-11.35-25.299-25.3 11.349-25.3 25.299-25.3zm68.773 58.099v-21.036c3.867-.02 8.288-.039 10.766-.039 14.543 0 26.375-11.669 26.375-26.013 0-14.343-11.832-26.012-26.375-26.012h-18.266c-4.142 0-7.5 3.357-7.5 7.5v65.6c0 4.143 3.358 7.5 7.5 7.5s7.5-3.357 7.5-7.5zm0-58.099h10.766c6.166 0 11.375 5.043 11.375 11.012 0 5.97-5.209 11.013-11.375 11.013-2.478 0-6.892.02-10.766.039zm-49.402-27.602c4.142 0 7.5-3.358 7.5-7.5v-58.099h10.687c4.142 0 7.5-3.358 7.5-7.5s-3.358-7.5-7.5-7.5h-36.228c-4.142 0-7.5 3.358-7.5 7.5s3.358 7.5 7.5 7.5h10.541v58.099c0 4.142 3.358 7.5 7.5 7.5z"/></g></svg>